<svg width="20" height="20" viewBox="0 0 20 20" fill="none" xmlns="http://www.w3.org/2000/svg">
<path d="M9.99967 14.3273L12.7563 11.5715L12.1663 10.9815L10.4163 12.7315V8.81482H9.58301V12.7315L7.83301 10.9815L7.24301 11.5715L9.99967 14.3273ZM4.80801 16.6673C4.43467 16.6673 4.09551 16.5148 3.79051 16.2098C3.48551 15.9043 3.33301 15.5654 3.33301 15.1932V6.23982C3.33301 6.07704 3.35884 5.92426 3.41051 5.78148C3.46273 5.63815 3.54051 5.50621 3.64384 5.38565L4.94217 3.82565C5.06273 3.66343 5.21356 3.54093 5.39467 3.45815C5.57579 3.37537 5.77023 3.33398 5.97801 3.33398H13.9897C14.1975 3.33398 14.3947 3.37537 14.5813 3.45815C14.7675 3.54148 14.9208 3.66398 15.0413 3.82565L16.3555 5.41732C16.4588 5.53787 16.5366 5.6726 16.5888 5.82148C16.6405 5.96982 16.6663 6.12537 16.6663 6.28815V15.1923C16.6663 15.5645 16.5138 15.9034 16.2088 16.209C15.9033 16.514 15.5644 16.6665 15.1922 16.6665L4.80801 16.6673ZM4.48301 5.67398H15.4997L14.3913 4.34398C14.3375 4.2901 14.2758 4.24732 14.2063 4.21565C14.1369 4.18343 14.0647 4.16732 13.9897 4.16732H5.99301C5.91856 4.16732 5.84634 4.18343 5.77634 4.21565C5.70745 4.24732 5.64634 4.2901 5.59301 4.34398L4.48301 5.67398Z" fill="#FEF9F3"/>
</svg>
