<svg width="1448" height="1104" viewBox="0 0 1448 1104" fill="none" xmlns="http://www.w3.org/2000/svg">
<g clip-path="url(#clip0_2_11)" filter="url(#filter0_d_2_11)">
<rect width="1440" height="1096" transform="translate(4)" fill="#EAAB40"/>
<path d="M1478.48 464.799C1478.48 591.638 1458.55 736.917 1406.99 850.419C1355.45 963.895 1272.48 1045.29 1146.42 1045.29C1019.8 1045.29 802.262 987.928 630.308 876.845C458.692 765.981 333.024 602.023 387.565 388.6C652.467 388.289 846.629 292.789 1006.16 197.399C1035.29 179.982 1063.24 162.586 1090.24 145.777C1137.36 116.445 1181.62 88.8994 1224.26 66.1504C1291.3 30.3879 1354.03 6.67045 1417.11 6.67045C1480.49 6.67045 1515.45 19.5419 1532.76 42.1488C1550.09 64.7858 1550.2 97.776 1542.21 139.357C1537.27 165.092 1529.3 193.808 1520.63 225.048C1515.3 244.252 1509.71 264.41 1504.39 285.415C1490.45 340.478 1478.48 401.113 1478.48 464.799Z" stroke="white" stroke-opacity="0.6" stroke-width="3.34091"/>
<path d="M1444.6 491.123C1444.6 606.791 1426.42 739.275 1379.41 842.782C1332.4 946.264 1256.74 1020.49 1141.79 1020.49C1026.32 1020.49 827.937 968.18 671.126 866.88C514.624 765.78 400.023 616.261 449.761 421.634C691.334 421.351 868.396 334.261 1013.88 247.272C1040.44 231.389 1065.93 215.525 1090.55 200.196C1133.53 173.447 1173.88 148.328 1212.77 127.582C1273.9 94.9691 1331.11 73.3404 1388.63 73.3404C1446.44 73.3404 1478.32 85.0783 1494.1 105.694C1509.91 126.338 1510.01 156.423 1502.72 194.342C1498.22 217.81 1490.95 243.998 1483.04 272.486C1478.18 289.999 1473.08 308.381 1468.23 327.536C1455.51 377.751 1444.6 433.045 1444.6 491.123Z" stroke="white" stroke-opacity="0.6" stroke-width="3.04668"/>
<path d="M1400.96 500.618C1400.96 598.63 1385.56 710.891 1345.72 798.597C1305.89 886.283 1241.78 949.183 1144.37 949.183C1046.53 949.183 878.43 904.854 745.556 819.017C612.944 733.349 515.837 606.655 557.982 441.737C762.679 441.497 912.713 367.701 1035.99 293.991C1058.5 280.532 1080.09 267.09 1100.96 254.101C1137.37 231.435 1171.57 210.15 1204.52 192.571C1256.32 164.937 1304.8 146.61 1353.54 146.61C1402.52 146.61 1429.53 156.556 1442.91 174.025C1456.3 191.517 1456.38 217.009 1450.21 249.14C1446.39 269.026 1440.23 291.216 1433.53 315.356C1429.42 330.195 1425.09 345.772 1420.98 362.003C1410.21 404.552 1400.96 451.406 1400.96 500.618Z" stroke="white" stroke-opacity="0.6" stroke-width="2.58161"/>
<path d="M1318.63 544.401C1318.63 622.234 1306.4 711.382 1274.77 781.031C1243.14 850.664 1192.23 900.614 1114.87 900.614C1037.17 900.614 903.684 865.411 798.167 797.247C692.857 729.217 615.742 628.606 649.211 497.642C811.764 497.452 930.909 438.849 1028.8 380.314C1046.68 369.627 1063.83 358.952 1080.4 348.637C1109.31 330.638 1136.47 313.735 1162.64 299.775C1203.77 277.83 1242.27 263.276 1280.97 263.276C1319.87 263.276 1341.32 271.175 1351.95 285.047C1362.58 298.938 1362.65 319.182 1357.75 344.698C1354.71 360.489 1349.82 378.11 1344.5 397.28C1341.23 409.064 1337.8 421.434 1334.53 434.324C1325.98 468.113 1318.63 505.32 1318.63 544.401Z" stroke="white" stroke-opacity="0.6" stroke-width="2.0501"/>
</g>
<defs>
<filter id="filter0_d_2_11" x="0" y="0" width="1448" height="1104" filterUnits="userSpaceOnUse" color-interpolation-filters="sRGB">
<feFlood flood-opacity="0" result="BackgroundImageFix"/>
<feColorMatrix in="SourceAlpha" type="matrix" values="0 0 0 0 0 0 0 0 0 0 0 0 0 0 0 0 0 0 127 0" result="hardAlpha"/>
<feOffset dy="4"/>
<feGaussianBlur stdDeviation="2"/>
<feComposite in2="hardAlpha" operator="out"/>
<feColorMatrix type="matrix" values="0 0 0 0 0 0 0 0 0 0 0 0 0 0 0 0 0 0 0.25 0"/>
<feBlend mode="normal" in2="BackgroundImageFix" result="effect1_dropShadow_2_11"/>
<feBlend mode="normal" in="SourceGraphic" in2="effect1_dropShadow_2_11" result="shape"/>
</filter>
<clipPath id="clip0_2_11">
<rect width="1440" height="1096" fill="white" transform="translate(4)"/>
</clipPath>
</defs>
</svg>
