<svg width="1071" height="1042" viewBox="0 0 1071 1042" fill="none" xmlns="http://www.w3.org/2000/svg">
<path d="M1105.48 459.799C1105.48 586.638 1085.55 731.917 1033.99 845.419C982.448 958.895 899.48 1040.29 773.421 1040.29C646.799 1040.29 429.262 982.928 257.308 871.845C85.6921 760.981 -39.9759 597.023 14.5649 383.6C279.467 383.289 473.629 287.789 633.16 192.399C662.288 174.982 690.235 157.586 717.24 140.777C764.364 111.445 808.616 83.8993 851.26 61.1504C918.297 25.3879 981.034 1.67045 1044.11 1.67045C1107.49 1.67045 1142.45 14.5419 1159.76 37.1488C1177.09 59.7858 1177.2 92.776 1169.22 134.357C1164.27 160.092 1156.3 188.808 1147.63 220.048C1142.3 239.252 1136.71 259.409 1131.39 280.415C1117.45 335.478 1105.48 396.113 1105.48 459.799Z" stroke="#AAAAAA" stroke-opacity="0.6667" stroke-width="3.34091"/>
<path d="M1071.6 486.123C1071.6 601.791 1053.42 734.275 1006.41 837.781C959.406 941.264 883.745 1015.49 768.787 1015.49C653.317 1015.49 454.938 963.18 298.128 861.88C141.626 760.779 27.0252 611.261 76.7626 416.634C318.335 416.351 495.398 329.26 640.879 242.271C667.442 226.389 692.928 210.525 717.554 195.196C760.528 168.447 800.883 143.327 839.771 122.582C900.905 89.9689 958.116 68.3402 1015.63 68.3402C1073.44 68.3402 1105.32 80.0781 1121.1 100.694C1136.91 121.337 1137.01 151.422 1129.72 189.341C1125.22 212.81 1117.95 238.997 1110.04 267.486C1105.18 284.999 1100.08 303.381 1095.23 322.536C1082.52 372.75 1071.6 428.045 1071.6 486.123Z" stroke="#AAAAAA" stroke-opacity="0.6667" stroke-width="3.04668"/>
<path d="M1027.96 495.618C1027.96 593.63 1012.56 705.891 972.72 793.597C932.891 881.283 868.779 944.183 771.37 944.183C673.526 944.183 505.429 899.854 372.556 814.017C239.943 728.349 142.836 601.655 184.981 436.737C389.678 436.497 539.713 362.701 662.987 288.991C685.494 275.532 707.09 262.09 727.957 249.101C764.371 226.435 798.566 205.15 831.518 187.571C883.32 159.937 931.798 141.61 980.536 141.61C1029.52 141.61 1056.53 151.556 1069.91 169.025C1083.3 186.517 1083.38 212.009 1077.21 244.14C1073.39 264.026 1067.23 286.216 1060.53 310.356C1056.42 325.195 1052.09 340.772 1047.98 357.003C1037.21 399.552 1027.96 446.406 1027.96 495.618Z" stroke="#AAAAAA" stroke-opacity="0.6667" stroke-width="2.58161"/>
<path d="M945.635 539.401C945.635 617.233 933.404 706.382 901.768 776.031C870.14 845.664 819.227 895.614 741.872 895.614C664.173 895.614 530.684 860.411 425.167 792.247C319.857 724.216 242.743 623.606 276.211 492.642C438.765 492.451 557.91 433.849 655.804 375.314C673.677 364.626 690.827 353.952 707.398 343.637C736.315 325.637 763.47 308.735 789.637 294.775C830.774 272.83 869.271 258.276 907.975 258.276C946.872 258.276 968.325 266.174 978.945 280.047C989.581 293.938 989.647 314.182 984.746 339.697C981.713 355.489 976.823 373.11 971.503 392.28C968.232 404.064 964.799 416.434 961.535 429.324C952.98 463.113 945.635 500.32 945.635 539.401Z" stroke="#AAAAAA" stroke-opacity="0.6667" stroke-width="2.0501"/>
</svg>
