<svg width="110" height="41" viewBox="0 0 110 41" fill="none" xmlns="http://www.w3.org/2000/svg">
<path fill-rule="evenodd" clip-rule="evenodd" d="M17.2119 2.37841C17.9223 2.25992 18.7022 2.12982 19.572 1.95888C19.6864 1.93642 19.8076 1.93055 19.9235 1.94278C20.2154 1.97359 20.5029 2.00299 20.7862 2.03196C25.9192 2.55688 29.6945 2.94294 33.5298 9.04341C33.9439 9.70207 33.549 10.5548 32.7826 10.6888C29.3577 11.2873 26.0154 11.597 22.687 11.6642C22.6829 11.6954 22.6768 11.7267 22.6687 11.758L22.3837 12.8492C22.3657 12.9179 22.3577 12.9891 22.3598 13.0608L22.427 15.3497C24.0025 15.8105 25.4801 16.5188 27.0461 17.3897C28.9444 18.4453 28.644 21.1696 26.5975 21.5522C25.2249 21.8088 23.9117 22.0358 22.6294 22.2382L22.6447 22.76C22.8371 22.6314 23.0831 22.5445 23.3706 22.5267C25.5793 22.3898 27.1607 22.5041 28.9113 23.1612C28.9832 23.1881 29.0523 23.2221 29.1141 23.2611C30.8986 24.3862 31.322 25.673 31.5919 27.39C31.7238 28.2298 30.5109 28.8703 29.6229 28.4265C28.6468 27.9387 27.766 27.47 26.9264 26.9925C26.8893 27.0736 26.814 27.1467 26.704 27.1921C26.6374 27.2196 26.5798 27.2596 26.5367 27.3084L23.032 31.2741C23.0174 31.2907 23.0018 31.3067 22.9855 31.3223L22.8987 31.4048L22.901 31.4835C22.9014 31.4955 22.9014 31.5072 22.9012 31.5192L22.8935 31.9449L23.1723 32.9547C23.1868 33.0071 23.1984 33.0598 23.2072 33.1131L23.2597 33.4298H32.7773C33.4019 33.4298 33.9083 33.9361 33.9083 34.5608C33.9083 35.1854 33.4019 35.6917 32.7773 35.6917H8.79124C8.16662 35.6917 7.66027 35.1854 7.66027 34.5608C7.66027 33.9361 8.16662 33.4298 8.79124 33.4298H14.811L11.9713 30.2166C11.9282 30.1678 11.8706 30.1278 11.804 30.1003C11.694 30.0549 11.6187 29.9818 11.5816 29.9007C10.7421 30.3782 9.86128 30.8469 8.88517 31.3347C7.99715 31.7785 6.7842 31.138 6.91617 30.2982C7.18598 28.5812 7.60944 27.2944 9.39397 26.1693C9.45575 26.1303 9.52487 26.0964 9.5967 26.0694C11.3473 25.4123 12.9288 25.298 15.1374 25.4349C16.2393 25.5032 16.7324 26.5866 15.9298 27.1413C15.0661 27.7382 14.2567 28.2767 13.4471 28.7848C13.51 28.8337 13.5542 28.8996 13.5642 28.9768C13.5733 29.0462 13.6129 29.1124 13.6762 29.164L16.6816 31.6138L16.1736 23.9436C16.1632 23.7863 16.0886 23.6358 15.9668 23.5261C15.8403 23.4122 15.7745 23.2705 15.7608 23.1298C13.7916 23.3316 11.7715 23.4959 9.59287 23.6416C7.46304 23.784 6.10846 21.2602 7.60716 19.8707C10.2162 17.4515 12.5685 15.9449 16.0445 14.9345C16.1634 14.8999 16.2896 14.8752 16.4146 14.8623C17.1969 14.7813 17.9337 14.7511 18.6354 14.7669L18.7506 12.9066C18.7569 12.8046 18.7425 12.7016 18.7082 12.6038L18.3626 11.6188C15.1665 11.49 11.9558 11.1563 8.66953 10.6585C7.87917 10.5388 7.46219 9.66096 7.87895 8.97882C11.31 3.36288 13.0912 3.06577 17.2119 2.37841ZM22.7962 27.9151L24.8319 26.2558C24.8951 26.2042 24.9347 26.138 24.9438 26.0686C24.9538 25.9914 24.998 25.9255 25.061 25.8766C24.2865 25.3905 23.5121 24.8766 22.6903 24.3104L22.7962 27.9151Z" fill="#EAAB40"/>
<path d="M50.302 17.3765H60.346L59.698 20.3937H53.2383L52.6915 23.0465H57.4098L56.8023 25.8612H52.084L50.8893 31.5312H47.305L50.302 17.3765ZM61.8798 20.5152C61.4208 20.5152 61.0495 20.387 60.766 20.1305C60.4825 19.8605 60.3408 19.5095 60.3408 19.0775C60.3408 18.6725 60.4488 18.2945 60.6648 17.9435C60.8808 17.5925 61.1643 17.3157 61.5153 17.1132C61.8798 16.8972 62.2645 16.7892 62.6695 16.7892C63.1285 16.7892 63.4998 16.931 63.7833 17.2145C64.0803 17.4845 64.2288 17.8355 64.2288 18.2675C64.2288 18.335 64.2153 18.4632 64.1883 18.6522C64.0668 19.1787 63.7833 19.6242 63.3378 19.9887C62.8923 20.3397 62.4063 20.5152 61.8798 20.5152ZM59.8345 21.8112H63.3985L61.333 31.5312H57.769L59.8345 21.8112ZM65.349 21.8112H68.7915L68.5485 22.8845C69.075 22.4255 69.6555 22.0812 70.29 21.8517C70.938 21.6222 71.586 21.5075 72.234 21.5075C73.2735 21.5075 74.0768 21.7977 74.6438 22.3782C75.2108 22.9452 75.4943 23.6675 75.4943 24.545C75.4943 24.815 75.4605 25.1187 75.393 25.4562L74.1173 31.5312H70.5533L71.7278 25.922C71.7818 25.706 71.8088 25.49 71.8088 25.274C71.8088 24.95 71.7143 24.707 71.5253 24.545C71.3363 24.3695 71.0258 24.2817 70.5938 24.2817C70.1348 24.2817 69.6893 24.3897 69.2573 24.6057C68.8388 24.8217 68.454 25.139 68.103 25.5575L66.8475 31.5312H63.2835L65.349 21.8112ZM79.0201 16.5665H82.5841L80.6401 25.7195L84.6699 21.8112H88.7604L83.8801 26.5092L87.2214 31.5312H83.1309L80.2959 27.2585L79.4049 31.5312H75.8409L79.0201 16.5665ZM92.8678 20.5152C92.4088 20.5152 92.0376 20.387 91.7541 20.1305C91.4706 19.8605 91.3288 19.5095 91.3288 19.0775C91.3288 18.6725 91.4368 18.2945 91.6528 17.9435C91.8688 17.5925 92.1523 17.3157 92.5033 17.1132C92.8678 16.8972 93.2526 16.7892 93.6576 16.7892C94.1166 16.7892 94.4878 16.931 94.7713 17.2145C95.0683 17.4845 95.2168 17.8355 95.2168 18.2675C95.2168 18.335 95.2033 18.4632 95.1763 18.6522C95.0548 19.1787 94.7713 19.6242 94.3258 19.9887C93.8803 20.3397 93.3943 20.5152 92.8678 20.5152ZM90.8226 21.8112H94.3866L92.3211 31.5312H88.7571L90.8226 21.8112ZM98.9696 31.835C97.6871 31.835 96.6611 31.484 95.8916 30.782C95.1356 30.08 94.7576 29.1282 94.7576 27.9267C94.7576 27.6027 94.8048 27.191 94.8993 26.6915C95.1153 25.679 95.5203 24.7812 96.1143 23.9982C96.7218 23.2017 97.4576 22.5875 98.3216 22.1555C99.1991 21.7235 100.151 21.5075 101.177 21.5075C101.852 21.5075 102.453 21.602 102.979 21.791C103.506 21.98 103.931 22.25 104.255 22.601L104.437 21.8112H108.001L105.936 31.5312H102.493L102.696 30.5592C101.602 31.4098 100.36 31.835 98.9696 31.835ZM100.488 29.081C101.028 29.081 101.541 28.946 102.027 28.676C102.527 28.3925 102.918 28.0145 103.202 27.542L103.566 25.8207C103.485 25.3482 103.256 24.977 102.878 24.707C102.513 24.4235 102.061 24.2817 101.521 24.2817C100.792 24.2817 100.158 24.4977 99.6176 24.9297C99.0776 25.3617 98.7266 25.949 98.5646 26.6915C98.5106 26.921 98.4836 27.1707 98.4836 27.4407C98.4836 28.5342 99.1518 29.081 100.488 29.081Z" fill="#EAAB40"/>
</svg>
