<svg width="48" height="48" viewBox="0 0 48 48" fill="none" xmlns="http://www.w3.org/2000/svg">
<circle cx="24" cy="24" r="24" fill="#D9D9D9"/>
<path d="M34 19.5352V29.0002C34 29.7654 33.7077 30.5017 33.1827 31.0584C32.6578 31.6152 31.9399 31.9503 31.176 31.9952L31 32.0002H17C16.2348 32.0002 15.4985 31.7078 14.9417 31.1829C14.385 30.6579 14.0499 29.9401 14.005 29.1762L14 29.0002V19.5352L23.445 25.8322L23.561 25.8982C23.6977 25.965 23.8478 25.9997 24 25.9997C24.1522 25.9997 24.3023 25.965 24.439 25.8982L24.555 25.8322L34 19.5352Z" fill="black"/>
<path d="M31.0003 16C32.0803 16 33.0273 16.57 33.5553 17.427L24.0003 23.797L14.4453 17.427C14.696 17.0198 15.0405 16.6784 15.45 16.4314C15.8595 16.1844 16.3221 16.0389 16.7993 16.007L17.0003 16H31.0003Z" fill="black"/>
</svg>
