<svg width="20" height="20" viewBox="0 0 20 20" fill="none" xmlns="http://www.w3.org/2000/svg">
<path d="M3.3291 14.3384V16.2492C3.3291 16.3597 3.373 16.4657 3.45114 16.5439C3.52928 16.622 3.63526 16.6659 3.74577 16.6659H5.66077C5.77106 16.6659 5.87685 16.6221 5.95493 16.5442L13.8283 8.67089L11.3283 6.17089L3.4516 14.0442C3.37341 14.1222 3.32935 14.228 3.3291 14.3384ZM12.3599 5.13839L14.8599 7.63839L16.0766 6.42172C16.2328 6.26545 16.3206 6.05353 16.3206 5.83256C16.3206 5.61159 16.2328 5.39966 16.0766 5.24339L14.7558 3.92172C14.5995 3.7655 14.3876 3.67773 14.1666 3.67773C13.9456 3.67773 13.7337 3.7655 13.5774 3.92172L12.3599 5.13839Z" fill="#FEF9F3"/>
</svg>
