<svg width="120" height="120" viewBox="0 0 120 120" fill="none" xmlns="http://www.w3.org/2000/svg">
<path d="M60.4688 5.13086C60.3516 5.13086 60.1875 5.13086 60.0469 5.15898C58.9688 5.3582 57.6797 6.3543 56.8359 8.63008C55.9453 10.9035 55.7578 14.1449 56.5312 17.616C57.3281 21.0449 58.9688 24.0004 60.7969 25.8051C62.5781 27.6098 64.1953 28.102 65.2734 27.9145C66.3984 27.7504 67.6406 26.7191 68.4844 24.4691C69.375 22.2098 69.6094 18.9238 68.8125 15.4809C67.9922 12.0121 66.375 9.08477 64.5469 7.2918C63 5.69805 61.5703 5.13086 60.4688 5.13086ZM87.5156 35.4848C84.9375 35.5551 81.6797 36.2348 78.5156 37.5707C74.8594 39.1645 72.0469 41.2973 70.5 43.3129C68.9531 45.2582 68.8125 46.7348 69.3047 47.602C69.8203 48.4691 71.25 49.2895 73.9922 49.4066C76.7344 49.5707 80.4375 48.891 84.0703 47.3441C87.7031 45.7738 90.5625 43.6176 92.1094 41.6488C93.6562 39.7035 93.7734 38.1801 93.2812 37.3129C92.8266 36.4903 91.5523 35.7676 89.1995 35.5882C88.7974 35.5575 88.3949 35.5064 87.9919 35.4908C87.8369 35.4848 87.6808 35.4848 87.5156 35.4848ZM55.5703 57.2582C54.0234 57.2816 52.6172 57.4691 51.3516 57.7973C48.5859 58.5004 46.9922 59.766 46.4766 61.2895C45.8906 62.8129 46.4766 64.641 48.3047 66.6098C50.2266 68.5316 53.3906 70.3832 57.3281 71.4145C61.2422 72.4457 65.0156 72.4223 67.8281 71.6723C70.6641 70.9457 72.2578 69.6566 72.7734 68.1566C73.3125 66.6332 72.7734 64.8285 70.875 62.8363C69.0234 60.9145 65.8594 59.0629 61.9219 58.0551C59.6953 57.4691 57.5156 57.2348 55.5703 57.2582ZM94.1068 71.4898C93.5677 71.1101 92.866 71.05 92.2702 71.3325L81.5317 76.4237C80.8073 76.7672 81.3143 77.8342 82.1156 77.8575C82.3487 77.8642 82.2773 77.9678 82.4182 78.1536L82.7552 78.5979C83.3252 79.3492 84.354 79.5801 85.1904 79.1443L93.8988 74.607C95.1139 73.9739 95.227 72.2787 94.1068 71.4898ZM80.916 71.0232C80.6224 70.9429 80.3097 70.9705 80.0346 71.1008L71.7247 75.0387C70.4832 75.627 70.9481 77.3837 72.3204 77.4487C72.5422 77.4592 72.6676 77.4115 72.8682 77.3164L81.1257 73.4033C82.1941 72.897 82.0565 71.3349 80.916 71.0232ZM103.29 74.1302C102.593 73.6967 101.718 73.6668 100.993 74.0515L88.4467 80.7071C86.9813 81.4845 86.5706 83.3951 87.5871 84.706C88.4157 85.7746 89.9119 86.056 91.0721 85.3614L103.257 78.0666C104.738 77.1802 104.756 75.0412 103.29 74.1302ZM36.8203 75.5629C36.1106 75.5616 35.403 75.6402 34.7109 75.7973C17.9531 79.6645 8.0625 79.9926 5.13281 79.9926C4.62799 79.9926 4.21875 80.4018 4.21875 80.9066V97.9291C4.21875 101.755 7.63468 104.786 11.4609 104.766C20.2031 104.766 35.6016 106.266 50.6016 115.032C51.3984 115.524 53.1094 115.711 55.2422 115.711C60.9375 115.711 69.5859 114.352 71.5781 113.602C86.209 108.115 103.009 95.6485 111.033 89.3003C113.571 87.292 113.596 83.5202 111.158 81.3904C109.384 79.8395 106.805 79.6404 104.815 80.903C99.3209 84.3885 88.8272 91.011 87.0938 91.852C84.966 92.896 82.8785 93.771 80.8444 94.5004C74.9061 96.6297 75.0835 94.1401 80.9691 91.869C83.6937 90.8176 84.3245 87.5168 82.7079 85.0847L82.1784 84.2881C80.9839 82.4911 78.9982 81.3872 76.8417 81.3139C70.9498 81.1136 59.0531 80.6434 53.9531 79.9691C50.3438 79.5004 42.5391 75.5629 36.8203 75.5629Z" fill="#EAAB40"/>
</svg>
