<svg width="240" height="240" viewBox="0 0 240 240" fill="none" xmlns="http://www.w3.org/2000/svg">
<g clip-path="url(#clip0_485_1082)">
<path d="M120.001 13.3333C98.904 13.3333 78.2811 19.5891 60.7399 31.3098C43.1986 43.0305 29.5269 59.6896 21.4535 79.1804C13.3802 98.6711 11.2678 120.118 15.3836 140.81C19.4994 161.501 29.6584 180.507 44.576 195.425C59.4936 210.342 78.4998 220.501 99.1911 224.617C119.882 228.733 141.329 226.62 160.82 218.547C180.311 210.474 196.97 196.802 208.691 179.261C220.411 161.72 226.667 141.097 226.667 120C226.667 91.7102 215.429 64.5791 195.425 44.5752C175.422 24.5713 148.29 13.3333 120.001 13.3333ZM189.667 84.1999L102.067 171.733L50.334 120C48.5659 118.232 47.5726 115.834 47.5726 113.333C47.5726 110.833 48.5659 108.435 50.334 106.667C52.1021 104.898 54.5002 103.905 57.0007 103.905C59.5012 103.905 61.8993 104.898 63.6674 106.667L102.201 145.2L176.467 70.9999C177.343 70.1244 178.382 69.43 179.526 68.9562C180.67 68.4824 181.896 68.2385 183.134 68.2385C184.372 68.2385 185.598 68.4824 186.742 68.9562C187.886 69.43 188.925 70.1244 189.801 70.9999C190.676 71.8754 191.371 72.9147 191.844 74.0586C192.318 75.2025 192.562 76.4285 192.562 77.6666C192.562 78.9047 192.318 80.1307 191.844 81.2746C191.371 82.4184 190.676 83.4578 189.801 84.3333L189.667 84.1999Z" fill="white"/>
<path d="M120.001 13.3333C98.904 13.3333 78.2811 19.5891 60.7399 31.3098C43.1986 43.0305 29.5269 59.6896 21.4535 79.1804C13.3802 98.6711 11.2678 120.118 15.3836 140.81C19.4994 161.501 29.6584 180.507 44.576 195.425C59.4936 210.342 78.4998 220.501 99.1911 224.617C119.882 228.733 141.329 226.62 160.82 218.547C180.311 210.474 196.97 196.802 208.691 179.261C220.411 161.72 226.667 141.097 226.667 120C226.667 91.7102 215.429 64.5791 195.425 44.5752C175.422 24.5713 148.29 13.3333 120.001 13.3333ZM189.667 84.1999L102.067 171.733L50.334 120C48.5659 118.232 47.5726 115.834 47.5726 113.333C47.5726 110.833 48.5659 108.435 50.334 106.667C52.1021 104.898 54.5002 103.905 57.0007 103.905C59.5012 103.905 61.8993 104.898 63.6674 106.667L102.201 145.2L176.467 70.9999C177.343 70.1244 178.382 69.43 179.526 68.9562C180.67 68.4824 181.896 68.2385 183.134 68.2385C184.372 68.2385 185.598 68.4824 186.742 68.9562C187.886 69.43 188.925 70.1244 189.801 70.9999C190.676 71.8754 191.371 72.9147 191.844 74.0586C192.318 75.2025 192.562 76.4285 192.562 77.6666C192.562 78.9047 192.318 80.1307 191.844 81.2746C191.371 82.4184 190.676 83.4578 189.801 84.3333L189.667 84.1999Z" fill="black" fill-opacity="0.2"/>
</g>
<defs>
<clipPath id="clip0_485_1082">
<rect width="240" height="240" fill="white"/>
</clipPath>
</defs>
</svg>
