<svg width="48" height="48" viewBox="0 0 48 48" fill="none" xmlns="http://www.w3.org/2000/svg">
<circle cx="24" cy="24" r="24" fill="#D9D9D9"/>
<path d="M24 14C29.523 14 34 18.477 34 24C34 29.523 29.523 34 24 34C22.2328 34.0029 20.4967 33.5352 18.97 32.645L14.004 34L15.356 29.032C14.4651 27.5049 13.9971 25.768 14 24C14 18.477 18.477 14 24 14ZM20.592 19.3L20.392 19.308C20.2625 19.3159 20.136 19.3499 20.02 19.408C19.9115 19.4694 19.8125 19.5462 19.726 19.636C19.606 19.749 19.538 19.847 19.465 19.942C19.0951 20.4229 18.896 21.0133 18.899 21.62C18.901 22.11 19.029 22.587 19.229 23.033C19.638 23.935 20.311 24.89 21.199 25.775C21.413 25.988 21.623 26.202 21.849 26.401C22.9524 27.3725 24.2673 28.073 25.689 28.447L26.257 28.534C26.442 28.544 26.627 28.53 26.813 28.521C27.1043 28.506 27.3886 28.4271 27.646 28.29C27.777 28.2225 27.9048 28.1491 28.029 28.07C28.029 28.07 28.072 28.042 28.154 27.98C28.289 27.88 28.372 27.809 28.484 27.692C28.567 27.606 28.639 27.505 28.694 27.39C28.772 27.227 28.85 26.916 28.882 26.657C28.906 26.459 28.899 26.351 28.896 26.284C28.892 26.177 28.803 26.066 28.706 26.019L28.124 25.758C28.124 25.758 27.254 25.379 26.722 25.137C26.6663 25.1127 26.6067 25.0988 26.546 25.096C26.4776 25.089 26.4085 25.0967 26.3433 25.1186C26.2781 25.1405 26.2183 25.1761 26.168 25.223C26.163 25.221 26.096 25.278 25.373 26.154C25.3315 26.2098 25.2744 26.2519 25.2088 26.2751C25.1433 26.2982 25.0723 26.3013 25.005 26.284C24.9399 26.2665 24.876 26.2445 24.814 26.218C24.69 26.166 24.647 26.146 24.562 26.11C23.9881 25.8595 23.4567 25.5211 22.987 25.107C22.861 24.997 22.744 24.877 22.624 24.761C22.2306 24.3842 21.8877 23.958 21.604 23.493L21.545 23.398C21.5026 23.3342 21.4684 23.2653 21.443 23.193C21.405 23.046 21.504 22.928 21.504 22.928C21.504 22.928 21.747 22.662 21.86 22.518C21.97 22.378 22.063 22.242 22.123 22.145C22.241 21.955 22.278 21.76 22.216 21.609C21.936 20.925 21.646 20.244 21.348 19.568C21.289 19.434 21.114 19.338 20.955 19.319C20.901 19.313 20.847 19.307 20.793 19.303C20.6587 19.2963 20.5241 19.2977 20.39 19.307L20.592 19.3Z" fill="black"/>
</svg>
